<?xml version="1.0" encoding="UTF-8" standalone="no"?>
<!-- Created with Inkscape (http://www.inkscape.org/) -->

<svg
   version="1.1"
   id="svg1"
   width="619.40002"
   height="684.58667"
   viewBox="0 0 619.40002 684.58667"
   sodipodi:docname="groomingspot dog vector.eps"
   xmlns:inkscape="http://www.inkscape.org/namespaces/inkscape"
   xmlns:sodipodi="http://sodipodi.sourceforge.net/DTD/sodipodi-0.dtd"
   xmlns="http://www.w3.org/2000/svg"
   xmlns:svg="http://www.w3.org/2000/svg">
  <defs
     id="defs1" />
  <sodipodi:namedview
     id="namedview1"
     pagecolor="#ffffff"
     bordercolor="#000000"
     borderopacity="0.25"
     inkscape:showpageshadow="2"
     inkscape:pageopacity="0.0"
     inkscape:pagecheckerboard="0"
     inkscape:deskcolor="#d1d1d1">
    <inkscape:page
       x="0"
       y="0"
       inkscape:label="1"
       id="page1"
       width="619.40002"
       height="684.58667"
       margin="0"
       bleed="0" />
  </sodipodi:namedview>
  <g
     id="g1"
     inkscape:groupmode="layer"
     inkscape:label="1">
    <path
       id="path1"
       d="M 4092.58,144.969 C 4092.58,64.8984 3300.2,0 2322.76,0 1345.32,0 552.938,64.8984 552.938,144.969 c 0,80.043 792.382,144.945 1769.822,144.945 977.44,0 1769.82,-64.902 1769.82,-144.945"
       style="fill:#dae8ee;fill-opacity:1;fill-rule:nonzero;stroke:none"
       transform="matrix(0.13333333,0,0,-0.13333333,0,684.58667)" />
    <path
       id="path2"
       d="M 1731.82,79.2773 C 656.18,79.2773 422.645,581.117 330.52,1123.45 275.164,1449.24 219.207,2025.6 218.648,2031.4 c -1.726,17.9 4.184,35.71 16.278,49.03 12.101,13.31 29.262,20.92 47.25,20.92 H 4363.34 c 17.99,0 35.15,-7.61 47.25,-20.92 12.09,-13.32 18,-31.13 16.28,-49.03 -0.56,-5.8 -56.52,-582.16 -111.87,-907.95 C 4222.87,581.117 3989.34,79.2773 2913.69,79.2773 H 1731.82"
       style="fill:#000000;fill-opacity:1;fill-rule:nonzero;stroke:none"
       transform="matrix(0.13333333,0,0,-0.13333333,0,684.58667)" />
    <path
       id="path3"
       d="m 282.176,2037.53 c 0,0 55.656,-576.09 111.262,-903.4 C 487.941,577.836 725.824,143.098 1731.82,143.098 h 1181.87 c 1006,0 1243.88,434.738 1338.39,991.032 55.6,327.31 111.26,903.4 111.26,903.4 H 282.176"
       style="fill:#ffffff;fill-opacity:1;fill-rule:nonzero;stroke:none"
       transform="matrix(0.13333333,0,0,-0.13333333,0,684.58667)" />
    <path
       id="path4"
       d="m 282.176,2037.53 c 0,0 55.656,-576.09 111.262,-903.4 C 487.941,577.836 725.824,143.098 1731.82,143.098 h 1181.87 c 1006,0 1243.88,434.738 1338.39,991.032 55.6,327.31 111.26,903.4 111.26,903.4 H 282.176"
       style="fill:#ffffff;fill-opacity:1;fill-rule:nonzero;stroke:none"
       transform="matrix(0.13333333,0,0,-0.13333333,0,684.58667)" />
    <path
       id="path5"
       d="M 2913.69,497.289 H 1731.82 c -1012.879,0 -1279.031,445 -1383.566,949.751 14.269,-111.71 29.726,-221.92 45.184,-312.91 C 487.941,577.836 725.824,143.098 1731.82,143.098 h 1181.87 c 1006,0 1243.88,434.738 1338.39,991.032 15.46,90.99 30.91,201.2 45.18,312.91 C 4192.72,942.289 3926.57,497.289 2913.69,497.289"
       style="fill:#dae8ee;fill-opacity:1;fill-rule:nonzero;stroke:none"
       transform="matrix(0.13333333,0,0,-0.13333333,0,684.58667)" />
    <path
       id="path6"
       d="m 310.273,1768.49 c 106.524,-37.62 240.711,-71.74 403.286,-102.57 430.481,-81.6 1001.961,-126.56 1609.211,-126.56 607.24,0 1178.73,44.96 1609.19,126.56 162.57,30.83 296.76,64.95 403.28,102.57 17.09,155.15 28.1,269.04 28.1,269.04 H 282.176 c 0,0 11.012,-113.87 28.097,-269.04"
       style="fill:#cad7dc;fill-opacity:1;fill-rule:nonzero;stroke:none"
       transform="matrix(0.13333333,0,0,-0.13333333,0,684.58667)" />
    <path
       id="path7"
       d="m 2322.77,1631.79 c -607.25,0 -1178.73,46.29 -1609.211,130.28 C 233.406,1855.81 0,1978.88 0,2138.35 c 0,159.51 233.406,282.6 713.559,376.31 430.461,84 1001.941,130.29 1609.211,130.29 607.25,0 1178.74,-46.29 1609.19,-130.29 480.16,-93.71 713.56,-216.8 713.56,-376.31 0,-159.47 -233.4,-282.54 -713.56,-376.28 -430.46,-83.99 -1001.95,-130.28 -1609.19,-130.28"
       style="fill:#000000;fill-opacity:1;fill-rule:nonzero;stroke:none"
       transform="matrix(0.13333333,0,0,-0.13333333,0,684.58667)" />
    <path
       id="path8"
       d="m 4581.7,2152.81 c 0,-236.52 -1011.36,-428.3 -2258.93,-428.3 -1247.58,0 -2258.9497,191.78 -2258.9497,428.3 0,236.56 1011.3697,428.31 2258.9497,428.31 1247.57,0 2258.93,-191.75 2258.93,-428.31"
       style="fill:#ffffff;fill-opacity:1;fill-rule:nonzero;stroke:none"
       transform="matrix(0.13333333,0,0,-0.13333333,0,684.58667)" />
    <path
       id="path9"
       d="m 2322.77,1851.46 c -547.11,0 -1061.77,30.65 -1449.192,86.31 -634.269,91.09 -634.269,206.1 -634.269,249.4 0,43.29 0,158.33 634.269,249.42 387.392,55.66 902.062,86.3 1449.192,86.3 547.12,0 1061.78,-30.64 1449.19,-86.3 634.26,-91.09 634.26,-206.13 634.26,-249.42 0,-43.3 0,-158.31 -634.26,-249.4 -387.42,-55.66 -902.09,-86.31 -1449.19,-86.31"
       style="fill:#000000;fill-opacity:1;fill-rule:nonzero;stroke:none"
       transform="matrix(0.13333333,0,0,-0.13333333,0,684.58667)" />
    <path
       id="path10"
       d="M 4221.87,2079.6 C 3923.24,2188.29 3185.52,2265.18 2322.77,2265.18 1460,2265.18 722.285,2188.29 423.652,2079.6 722.285,1970.92 1460,1894.01 2322.77,1894.01 c 862.75,0 1600.47,76.91 1899.1,185.59"
       style="fill:#b5e7fa;fill-opacity:1;fill-rule:nonzero;stroke:none"
       transform="matrix(0.13333333,0,0,-0.13333333,0,684.58667)" />
    <path
       id="path11"
       d="m 367.508,2102.95 c 90.226,39.07 243.847,80.81 506.07,118.48 387.392,55.65 902.062,86.3 1449.192,86.3 547.12,0 1061.78,-30.65 1449.19,-86.3 262.21,-37.67 415.83,-79.41 506.06,-118.48 55.62,26.67 85.65,54.94 85.65,84.22 0,161.94 -913.74,293.17 -2040.9,293.17 -1127.17,0 -2040.915,-131.23 -2040.915,-293.17 0,-29.28 30.032,-57.55 85.653,-84.22"
       style="fill:#dae8ee;fill-opacity:1;fill-rule:nonzero;stroke:none"
       transform="matrix(0.13333333,0,0,-0.13333333,0,684.58667)" />
    <path
       id="path12"
       d="m 982.855,2147.51 c 0,0 -246.558,-11.76 -242.945,-58.94 3.625,-47.2 288.87,-81.09 288.87,-81.09 0,0 -342.03,-8.84 -364.999,78.14 -22.965,86.96 319.074,61.89 319.074,61.89"
       style="fill:#000000;fill-opacity:1;fill-rule:nonzero;stroke:none"
       transform="matrix(0.13333333,0,0,-0.13333333,0,684.58667)" />
    <path
       id="path13"
       d="m 3648.41,2147.51 c 0,0 246.55,-11.76 242.94,-58.94 -3.62,-47.2 -288.87,-81.09 -288.87,-81.09 0,0 342.04,-8.84 365,78.14 22.97,86.96 -319.07,61.89 -319.07,61.89"
       style="fill:#000000;fill-opacity:1;fill-rule:nonzero;stroke:none"
       transform="matrix(0.13333333,0,0,-0.13333333,0,684.58667)" />
    <path
       id="path14"
       d="m 2286.5,1953.16 c -317.54,0 -616.46,9.81 -841.7,27.61 -377.84,29.92 -406.11,67.71 -406.11,121.93 0,83.53 160.8,102.5 406.11,121.91 225.4,17.82 524.32,27.63 841.7,27.63 317.37,0 616.3,-9.81 841.71,-27.63 377.83,-29.9 406.09,-67.69 406.09,-121.91 0,-83.54 -160.78,-102.5 -406.09,-121.93 -225.26,-17.8 -524.18,-27.61 -841.71,-27.61"
       style="fill:#000000;fill-opacity:1;fill-rule:nonzero;stroke:none"
       transform="matrix(0.13333333,0,0,-0.13333333,0,684.58667)" />
    <path
       id="path15"
       d="m 2286.5,1995.71 c -316.5,0 -614.22,9.76 -838.34,27.48 -366.92,29.05 -366.92,65.72 -366.92,79.51 0,13.79 0,50.46 366.92,79.48 224.11,17.73 521.83,27.51 838.34,27.51 316.52,0 614.23,-9.78 838.35,-27.51 366.91,-29.02 366.91,-65.69 366.91,-79.48 0,-13.79 0,-50.46 -366.91,-79.51 -224.13,-17.72 -521.85,-27.48 -838.35,-27.48"
       style="fill:#b5e7fa;fill-opacity:1;fill-rule:nonzero;stroke:none"
       transform="matrix(0.13333333,0,0,-0.13333333,0,684.58667)" />
    <path
       id="path16"
       d="m 1444.8,1980.77 c 225.24,-17.8 524.16,-27.61 841.7,-27.61 317.53,0 616.45,9.81 841.71,27.61 79,6.26 149.08,12.5 207.95,20.84 76.56,368.59 171.39,1050.33 30.05,1754.84 -5.33,26.55 -27.78,46.23 -54.79,48.05 l -1162.51,78.48 c -1.37,0.09 -2.71,0.15 -4.06,0.15 -22.97,0 -44.08,-13.15 -54.1,-34.07 l -469.54,-980.48 c -61.38,-48.72 -286.58,-264.69 -384.54,-865.93 53.68,-7.77 121.69,-15.04 208.13,-21.88"
       style="fill:#000000;fill-opacity:1;fill-rule:nonzero;stroke:none"
       transform="matrix(0.13333333,0,0,-0.13333333,0,684.58667)" />
    <path
       id="path17"
       d="m 1448.16,2023.19 c 224.11,-17.72 521.84,-27.48 838.34,-27.48 316.5,0 614.22,9.76 838.35,27.48 62.87,4.98 114.53,10.18 157.67,15.45 78.92,389.58 159.37,1035.65 24.86,1706.01 l -1162.52,78.49 -475.92,-993.8 c 0,0 -252.94,-162.57 -365.64,-792.24 40.52,-4.74 88.12,-9.42 144.86,-13.91"
       style="fill:#fafdff;fill-opacity:1;fill-rule:nonzero;stroke:none"
       transform="matrix(0.13333333,0,0,-0.13333333,0,684.58667)" />
    <path
       id="path18"
       d="m 2472.27,2181.68 c -943.22,77.92 -717.11,827.63 -717.05,827.82 l -86.28,-180.16 c 0,0 -252.94,-162.57 -365.64,-792.24 40.52,-4.74 88.12,-9.42 144.86,-13.91 224.12,-17.72 521.84,-27.48 838.34,-27.48 316.5,0 614.22,9.76 838.35,27.48 62.87,4.98 114.53,10.18 157.67,15.45 15.52,76.57 31.02,163.34 45,257.95 -133.93,-81.88 -385.23,-153.73 -855.25,-114.91"
       style="fill:#e3eef3;fill-opacity:1;fill-rule:nonzero;stroke:none"
       transform="matrix(0.13333333,0,0,-0.13333333,0,684.58667)" />
    <path
       id="path19"
       d="m 708.23,2172.65 c -152.57,0 -276.691,124.13 -276.691,276.7 0,152.57 124.121,276.7 276.691,276.7 152.571,0 276.704,-124.13 276.704,-276.7 0,-152.57 -124.133,-276.7 -276.704,-276.7"
       style="fill:#000000;fill-opacity:1;fill-rule:nonzero;stroke:none"
       transform="matrix(0.13333333,0,0,-0.13333333,0,684.58667)" />
    <path
       id="path20"
       d="m 942.387,2449.35 c 0,-129.3 -104.832,-234.15 -234.157,-234.15 -129.316,0 -234.144,104.85 -234.144,234.15 0,129.32 104.828,234.15 234.144,234.15 129.325,0 234.157,-104.83 234.157,-234.15"
       style="fill:#def4fd;fill-opacity:1;fill-rule:nonzero;stroke:none"
       transform="matrix(0.13333333,0,0,-0.13333333,0,684.58667)" />
    <path
       id="path21"
       d="m 833.523,2514.14 c -3.457,0 -6.918,1.17 -9.765,3.52 -8.164,6.73 -16.692,12.67 -25.332,17.66 -7.106,4.09 -9.715,13.06 -5.922,20.36 l 19.309,37.02 c 1.984,3.82 5.488,6.62 9.628,7.73 1.309,0.37 2.629,0.52 3.961,0.52 2.899,0 5.762,-0.82 8.246,-2.4 14.469,-9.24 27.184,-20.69 37.778,-34.01 4.883,-6.12 4.355,-14.95 -1.235,-20.48 l -25.914,-25.51 c -2.972,-2.93 -6.859,-4.41 -10.754,-4.41"
       style="fill:#ffffff;fill-opacity:1;fill-rule:nonzero;stroke:none"
       transform="matrix(0.13333333,0,0,-0.13333333,0,684.58667)" />
    <path
       id="path22"
       d="m 751.805,2554.04 c -2.723,0 -5.473,0.51 -8.125,1.62 -19.992,8.26 -40.883,13.93 -62.082,16.86 -6.762,0.92 -12.664,5.05 -15.875,11.08 -3.207,6.02 -3.325,13.23 -0.321,19.36 l 23.207,47.34 c 3.571,7.3 10.981,11.91 19.102,11.91 0.051,0 0.113,0 0.164,0 28.648,0 56.094,-5.51 82.082,-16.35 5.684,-2.37 10.047,-7.06 12,-12.9 1.941,-5.84 1.266,-12.22 -1.852,-17.51 l -29.957,-50.92 c -3.925,-6.67 -11,-10.49 -18.343,-10.49"
       style="fill:#ffffff;fill-opacity:1;fill-rule:nonzero;stroke:none"
       transform="matrix(0.13333333,0,0,-0.13333333,0,684.58667)" />
    <path
       id="path23"
       d="m 935.75,2394.86 c -147.465,-77.5 -215.906,-16.81 -332.477,52.31 -53.679,31.83 -95.957,35.19 -127.785,27.42 -0.883,-8.31 -1.402,-16.7 -1.402,-25.24 0,-129.3 104.828,-234.15 234.144,-234.15 110.524,0 202.918,76.68 227.52,179.66"
       style="fill:#c2ebfb;fill-opacity:1;fill-rule:nonzero;stroke:none"
       transform="matrix(0.13333333,0,0,-0.13333333,0,684.58667)" />
    <path
       id="path24"
       d="m 4160.66,2287.51 c -152.57,0 -276.7,124.13 -276.7,276.7 0,152.58 124.13,276.7 276.7,276.7 152.57,0 276.7,-124.12 276.7,-276.7 0,-152.57 -124.13,-276.7 -276.7,-276.7"
       style="fill:#000000;fill-opacity:1;fill-rule:nonzero;stroke:none"
       transform="matrix(0.13333333,0,0,-0.13333333,0,684.58667)" />
    <path
       id="path25"
       d="m 4394.81,2564.21 c 0,-129.3 -104.83,-234.15 -234.15,-234.15 -129.32,0 -234.15,104.85 -234.15,234.15 0,129.33 104.83,234.16 234.15,234.16 129.32,0 234.15,-104.83 234.15,-234.16"
       style="fill:#def4fd;fill-opacity:1;fill-rule:nonzero;stroke:none"
       transform="matrix(0.13333333,0,0,-0.13333333,0,684.58667)" />
    <path
       id="path26"
       d="m 4285.95,2629.01 c -3.46,0 -6.91,1.16 -9.76,3.51 -8.17,6.73 -16.7,12.68 -25.34,17.66 -7.1,4.09 -9.71,13.07 -5.92,20.36 l 19.31,37.02 c 1.99,3.82 5.49,6.63 9.63,7.73 1.31,0.37 2.63,0.52 3.96,0.52 2.9,0 5.76,-0.81 8.25,-2.39 14.47,-9.24 27.18,-20.69 37.78,-34.01 4.88,-6.13 4.35,-14.96 -1.24,-20.48 l -25.92,-25.52 c -2.97,-2.92 -6.85,-4.4 -10.75,-4.4"
       style="fill:#ffffff;fill-opacity:1;fill-rule:nonzero;stroke:none"
       transform="matrix(0.13333333,0,0,-0.13333333,0,684.58667)" />
    <path
       id="path27"
       d="m 4204.23,2668.9 c -2.72,0 -5.47,0.52 -8.12,1.62 -20,8.27 -40.88,13.94 -62.09,16.87 -6.76,0.91 -12.66,5.05 -15.87,11.07 -3.21,6.03 -3.32,13.24 -0.32,19.36 l 23.21,47.35 c 3.57,7.29 10.98,11.9 19.1,11.9 0.05,0 0.11,0 0.16,0 28.65,0 56.1,-5.5 82.09,-16.35 5.68,-2.36 10.04,-7.06 11.99,-12.9 1.95,-5.84 1.27,-12.21 -1.84,-17.51 l -29.96,-50.92 c -3.93,-6.67 -11,-10.49 -18.35,-10.49"
       style="fill:#ffffff;fill-opacity:1;fill-rule:nonzero;stroke:none"
       transform="matrix(0.13333333,0,0,-0.13333333,0,684.58667)" />
    <path
       id="path28"
       d="m 4388.18,2509.72 c -147.47,-77.49 -215.91,-16.81 -332.48,52.31 -53.68,31.83 -95.96,35.2 -127.79,27.42 -0.88,-8.31 -1.4,-16.7 -1.4,-25.24 0,-129.3 104.83,-234.15 234.15,-234.15 110.52,0 202.92,76.68 227.52,179.66"
       style="fill:#c2ebfb;fill-opacity:1;fill-rule:nonzero;stroke:none"
       transform="matrix(0.13333333,0,0,-0.13333333,0,684.58667)" />
    <path
       id="path29"
       d="m 1305.3,2994.09 c -152.57,0 -276.69,124.13 -276.69,276.7 0,152.57 124.12,276.7 276.69,276.7 152.57,0 276.7,-124.13 276.7,-276.7 0,-152.57 -124.13,-276.7 -276.7,-276.7"
       style="fill:#000000;fill-opacity:1;fill-rule:nonzero;stroke:none"
       transform="matrix(0.13333333,0,0,-0.13333333,0,684.58667)" />
    <path
       id="path30"
       d="m 1539.46,3270.79 c 0,-129.31 -104.83,-234.15 -234.16,-234.15 -129.31,0 -234.14,104.84 -234.14,234.15 0,129.32 104.83,234.16 234.14,234.16 129.33,0 234.16,-104.84 234.16,-234.16"
       style="fill:#def4fd;fill-opacity:1;fill-rule:nonzero;stroke:none"
       transform="matrix(0.13333333,0,0,-0.13333333,0,684.58667)" />
    <path
       id="path31"
       d="m 1430.59,3335.59 c -3.45,0 -6.91,1.16 -9.76,3.51 -8.16,6.73 -16.69,12.67 -25.33,17.65 -7.11,4.1 -9.71,13.07 -5.93,20.37 l 19.32,37.02 c 1.98,3.82 5.48,6.62 9.63,7.72 1.3,0.38 2.62,0.52 3.95,0.52 2.9,0 5.77,-0.81 8.25,-2.38 14.47,-9.25 27.18,-20.7 37.78,-34.01 4.88,-6.13 4.35,-14.96 -1.24,-20.49 l -25.91,-25.51 c -2.97,-2.93 -6.86,-4.4 -10.76,-4.4"
       style="fill:#ffffff;fill-opacity:1;fill-rule:nonzero;stroke:none"
       transform="matrix(0.13333333,0,0,-0.13333333,0,684.58667)" />
    <path
       id="path32"
       d="m 1348.88,3375.47 c -2.72,0 -5.48,0.52 -8.13,1.62 -19.99,8.27 -40.88,13.95 -62.08,16.87 -6.76,0.92 -12.66,5.05 -15.87,11.08 -3.21,6.02 -3.33,13.23 -0.33,19.36 l 23.21,47.35 c 3.57,7.29 10.98,11.9 19.1,11.9 0.06,0 0.11,0 0.17,0 28.65,0 56.09,-5.51 82.08,-16.35 5.68,-2.37 10.04,-7.07 12,-12.9 1.94,-5.84 1.27,-12.22 -1.85,-17.51 l -29.96,-50.93 c -3.93,-6.66 -11,-10.49 -18.34,-10.49"
       style="fill:#ffffff;fill-opacity:1;fill-rule:nonzero;stroke:none"
       transform="matrix(0.13333333,0,0,-0.13333333,0,684.58667)" />
    <path
       id="path33"
       d="m 1532.82,3216.3 c -147.46,-77.5 -215.91,-16.81 -332.47,52.31 -53.69,31.83 -95.96,35.19 -127.79,27.42 -0.88,-8.31 -1.4,-16.7 -1.4,-25.24 0,-129.31 104.83,-234.15 234.14,-234.15 110.52,0 202.92,76.68 227.52,179.66"
       style="fill:#c2ebfb;fill-opacity:1;fill-rule:nonzero;stroke:none"
       transform="matrix(0.13333333,0,0,-0.13333333,0,684.58667)" />
    <path
       id="path34"
       d="m 1083.56,2660.65 c -88.915,0 -161.255,72.34 -161.255,161.26 0,88.93 72.34,161.27 161.255,161.27 88.93,0 161.27,-72.34 161.27,-161.27 0,-88.92 -72.34,-161.26 -161.27,-161.26"
       style="fill:#000000;fill-opacity:1;fill-rule:nonzero;stroke:none"
       transform="matrix(0.13333333,0,0,-0.13333333,0,684.58667)" />
    <path
       id="path35"
       d="m 1202.28,2821.91 c 0,-65.55 -53.15,-118.71 -118.72,-118.71 -65.55,0 -118.708,53.16 -118.708,118.71 0,65.56 53.158,118.73 118.708,118.73 65.57,0 118.72,-53.17 118.72,-118.73"
       style="fill:#def4fd;fill-opacity:1;fill-rule:nonzero;stroke:none"
       transform="matrix(0.13333333,0,0,-0.13333333,0,684.58667)" />
    <path
       id="path36"
       d="m 1147.09,2854.77 c -1.75,0 -3.51,0.59 -4.95,1.77 -4.14,3.42 -8.47,6.44 -12.85,8.95 -3.6,2.08 -4.93,6.63 -2.99,10.33 l 9.78,18.78 c 1.01,1.93 2.78,3.34 4.88,3.9 0.67,0.19 1.33,0.27 2.01,0.27 1.47,0 2.93,-0.41 4.18,-1.2 7.34,-4.7 13.79,-10.49 19.16,-17.25 2.47,-3.11 2.2,-7.58 -0.63,-10.38 L 1152.54,2857 c -1.51,-1.48 -3.48,-2.23 -5.45,-2.23"
       style="fill:#ffffff;fill-opacity:1;fill-rule:nonzero;stroke:none"
       transform="matrix(0.13333333,0,0,-0.13333333,0,684.58667)" />
    <path
       id="path37"
       d="m 1105.66,2874.98 c -1.39,0 -2.78,0.27 -4.12,0.84 -10.14,4.17 -20.73,7.06 -31.49,8.54 -3.42,0.47 -6.41,2.57 -8.03,5.62 -1.63,3.06 -1.7,6.72 -0.17,9.81 l 11.76,24.02 c 1.82,3.69 5.57,6.02 9.69,6.02 0,0 0.05,0 0.08,0 14.53,0 28.44,-2.78 41.62,-8.29 2.88,-1.2 5.1,-3.57 6.09,-6.54 0.98,-2.95 0.64,-6.19 -0.94,-8.87 l -15.2,-25.83 c -1.98,-3.38 -5.56,-5.32 -9.29,-5.32"
       style="fill:#ffffff;fill-opacity:1;fill-rule:nonzero;stroke:none"
       transform="matrix(0.13333333,0,0,-0.13333333,0,684.58667)" />
    <path
       id="path38"
       d="m 1198.91,2794.3 c -74.75,-39.31 -109.46,-8.54 -168.55,26.5 -27.23,16.15 -48.661,17.85 -64.801,13.9 -0.446,-4.19 -0.707,-8.45 -0.707,-12.79 0,-65.55 53.158,-118.71 118.708,-118.71 56.04,0 102.88,38.87 115.35,91.1"
       style="fill:#c2ebfb;fill-opacity:1;fill-rule:nonzero;stroke:none"
       transform="matrix(0.13333333,0,0,-0.13333333,0,684.58667)" />
    <path
       id="path39"
       d="m 2953.93,2225.82 c -88.92,0 -161.26,72.34 -161.26,161.25 0,88.95 72.34,161.28 161.26,161.28 88.92,0 161.26,-72.33 161.26,-161.28 0,-88.91 -72.34,-161.25 -161.26,-161.25"
       style="fill:#000000;fill-opacity:1;fill-rule:nonzero;stroke:none"
       transform="matrix(0.13333333,0,0,-0.13333333,0,684.58667)" />
    <path
       id="path40"
       d="m 3072.64,2387.07 c 0,-65.54 -53.15,-118.7 -118.71,-118.7 -65.56,0 -118.72,53.16 -118.72,118.7 0,65.57 53.16,118.73 118.72,118.73 65.56,0 118.71,-53.16 118.71,-118.73"
       style="fill:#def4fd;fill-opacity:1;fill-rule:nonzero;stroke:none"
       transform="matrix(0.13333333,0,0,-0.13333333,0,684.58667)" />
    <path
       id="path41"
       d="m 3017.45,2419.94 c -1.75,0 -3.51,0.58 -4.95,1.77 -4.14,3.43 -8.46,6.44 -12.85,8.95 -3.6,2.08 -4.92,6.63 -2.99,10.33 l 9.79,18.78 c 1,1.93 2.78,3.34 4.88,3.9 0.66,0.19 1.33,0.27 2,0.27 1.47,0 2.93,-0.41 4.19,-1.2 7.33,-4.7 13.78,-10.49 19.15,-17.24 2.47,-3.12 2.21,-7.59 -0.63,-10.39 l -13.14,-12.95 c -1.51,-1.47 -3.47,-2.22 -5.45,-2.22"
       style="fill:#ffffff;fill-opacity:1;fill-rule:nonzero;stroke:none"
       transform="matrix(0.13333333,0,0,-0.13333333,0,684.58667)" />
    <path
       id="path42"
       d="m 2976.02,2440.16 c -1.38,0 -2.77,0.27 -4.12,0.83 -10.13,4.17 -20.73,7.06 -31.48,8.54 -3.43,0.47 -6.42,2.57 -8.04,5.63 -1.63,3.05 -1.69,6.7 -0.17,9.8 l 11.76,24.02 c 1.82,3.7 5.57,6.02 9.69,6.02 0,0 0.06,0 0.09,0 14.52,0 28.44,-2.78 41.61,-8.29 2.89,-1.2 5.1,-3.57 6.09,-6.54 0.98,-2.95 0.64,-6.19 -0.94,-8.87 l -15.19,-25.83 c -1.99,-3.38 -5.57,-5.31 -9.3,-5.31"
       style="fill:#ffffff;fill-opacity:1;fill-rule:nonzero;stroke:none"
       transform="matrix(0.13333333,0,0,-0.13333333,0,684.58667)" />
    <path
       id="path43"
       d="m 3069.28,2359.46 c -74.76,-39.3 -109.46,-8.53 -168.56,26.52 -27.22,16.14 -48.66,17.84 -64.8,13.89 -0.44,-4.19 -0.71,-8.45 -0.71,-12.8 0,-65.54 53.16,-118.7 118.72,-118.7 56.03,0 102.87,38.87 115.35,91.09"
       style="fill:#c2ebfb;fill-opacity:1;fill-rule:nonzero;stroke:none"
       transform="matrix(0.13333333,0,0,-0.13333333,0,684.58667)" />
    <path
       id="path44"
       d="m 2050.05,2091.06 c -88.92,0 -161.26,72.34 -161.26,161.26 0,88.94 72.34,161.27 161.26,161.27 88.92,0 161.26,-72.33 161.26,-161.27 0,-88.92 -72.34,-161.26 -161.26,-161.26"
       style="fill:#000000;fill-opacity:1;fill-rule:nonzero;stroke:none"
       transform="matrix(0.13333333,0,0,-0.13333333,0,684.58667)" />
    <path
       id="path45"
       d="m 2168.76,2252.32 c 0,-65.55 -53.15,-118.71 -118.71,-118.71 -65.56,0 -118.71,53.16 -118.71,118.71 0,65.56 53.15,118.73 118.71,118.73 65.56,0 118.71,-53.17 118.71,-118.73"
       style="fill:#def4fd;fill-opacity:1;fill-rule:nonzero;stroke:none"
       transform="matrix(0.13333333,0,0,-0.13333333,0,684.58667)" />
    <path
       id="path46"
       d="m 2113.57,2285.18 c -1.75,0 -3.51,0.59 -4.95,1.77 -4.14,3.43 -8.47,6.44 -12.85,8.95 -3.59,2.08 -4.92,6.63 -2.99,10.33 l 9.78,18.78 c 1.01,1.93 2.79,3.35 4.89,3.91 0.66,0.19 1.32,0.27 2,0.27 1.48,0 2.93,-0.42 4.19,-1.21 7.33,-4.69 13.78,-10.49 19.15,-17.24 2.47,-3.12 2.2,-7.59 -0.63,-10.39 l -13.14,-12.94 c -1.51,-1.48 -3.47,-2.23 -5.45,-2.23"
       style="fill:#ffffff;fill-opacity:1;fill-rule:nonzero;stroke:none"
       transform="matrix(0.13333333,0,0,-0.13333333,0,684.58667)" />
    <path
       id="path47"
       d="m 2072.14,2305.4 c -1.38,0 -2.77,0.27 -4.12,0.83 -10.13,4.18 -20.73,7.06 -31.48,8.54 -3.43,0.48 -6.42,2.57 -8.04,5.63 -1.63,3.05 -1.69,6.71 -0.16,9.8 l 11.75,24.02 c 1.82,3.7 5.57,6.02 9.7,6.02 0,0 0.05,0 0.08,0 14.52,0 28.44,-2.78 41.61,-8.28 2.89,-1.21 5.1,-3.58 6.09,-6.55 0.98,-2.95 0.64,-6.19 -0.94,-8.87 l -15.2,-25.82 c -1.98,-3.39 -5.56,-5.32 -9.29,-5.32"
       style="fill:#ffffff;fill-opacity:1;fill-rule:nonzero;stroke:none"
       transform="matrix(0.13333333,0,0,-0.13333333,0,684.58667)" />
    <path
       id="path48"
       d="m 2165.4,2224.71 c -74.76,-39.31 -109.47,-8.54 -168.56,26.51 -27.23,16.14 -48.66,17.84 -64.8,13.9 -0.44,-4.2 -0.7,-8.46 -0.7,-12.8 0,-65.55 53.15,-118.71 118.71,-118.71 56.03,0 102.87,38.87 115.35,91.1"
       style="fill:#c2ebfb;fill-opacity:1;fill-rule:nonzero;stroke:none"
       transform="matrix(0.13333333,0,0,-0.13333333,0,684.58667)" />
    <path
       id="path49"
       d="m 345.219,2701.06 c -68.559,0 -124.34,55.78 -124.34,124.34 0,68.55 55.781,124.33 124.34,124.33 68.554,0 124.336,-55.78 124.336,-124.33 0,-68.56 -55.782,-124.34 -124.336,-124.34"
       style="fill:#000000;fill-opacity:1;fill-rule:nonzero;stroke:none"
       transform="matrix(0.13333333,0,0,-0.13333333,0,684.58667)" />
    <path
       id="path50"
       d="m 427.008,2825.4 c 0,-45.17 -36.613,-81.79 -81.789,-81.79 -45.176,0 -81.793,36.62 -81.793,81.79 0,45.16 36.617,81.79 81.793,81.79 45.176,0 81.789,-36.63 81.789,-81.79"
       style="fill:#def4fd;fill-opacity:1;fill-rule:nonzero;stroke:none"
       transform="matrix(0.13333333,0,0,-0.13333333,0,684.58667)" />
    <path
       id="path51"
       d="m 388.98,2848.04 c -1.203,0 -2.41,0.4 -3.406,1.21 -2.847,2.36 -5.84,4.44 -8.851,6.16 -2.485,1.44 -3.395,4.57 -2.067,7.13 l 6.742,12.94 c 0.696,1.34 1.922,2.29 3.368,2.68 0.453,0.13 0.91,0.19 1.379,0.19 1.019,0 2.015,-0.29 2.886,-0.83 5.047,-3.24 9.496,-7.23 13.196,-11.88 1.699,-2.14 1.515,-5.21 -0.438,-7.15 l -9.059,-8.91 c -1.027,-1.02 -2.386,-1.54 -3.75,-1.54"
       style="fill:#ffffff;fill-opacity:1;fill-rule:nonzero;stroke:none"
       transform="matrix(0.13333333,0,0,-0.13333333,0,684.58667)" />
    <path
       id="path52"
       d="m 360.438,2861.96 c -0.958,0 -1.915,0.19 -2.836,0.58 -6.981,2.87 -14.286,4.86 -21.692,5.88 -2.359,0.33 -4.422,1.77 -5.535,3.88 -1.121,2.11 -1.176,4.62 -0.117,6.76 l 8.105,16.54 c 1.246,2.55 3.832,4.15 6.668,4.15 h 0.039 c 10.028,0 19.614,-1.91 28.696,-5.71 1.992,-0.83 3.507,-2.45 4.195,-4.51 0.676,-2.04 0.434,-4.26 -0.645,-6.11 l -10.472,-17.78 c -1.371,-2.35 -3.844,-3.68 -6.406,-3.68"
       style="fill:#ffffff;fill-opacity:1;fill-rule:nonzero;stroke:none"
       transform="matrix(0.13333333,0,0,-0.13333333,0,684.58667)" />
    <path
       id="path53"
       d="m 424.691,2806.37 c -51.511,-27.07 -75.421,-5.88 -116.132,18.26 -18.758,11.14 -33.52,12.3 -44.645,9.57 -0.312,-2.88 -0.488,-5.81 -0.488,-8.8 0,-45.17 36.617,-81.79 81.793,-81.79 38.609,0 70.875,26.77 79.472,62.76"
       style="fill:#c2ebfb;fill-opacity:1;fill-rule:nonzero;stroke:none"
       transform="matrix(0.13333333,0,0,-0.13333333,0,684.58667)" />
    <path
       id="path54"
       d="m 3643.74,2135.21 c -107.81,0 -195.52,87.71 -195.52,195.53 0,107.83 87.71,195.54 195.52,195.54 107.83,0 195.55,-87.71 195.55,-195.54 0,-107.82 -87.72,-195.53 -195.55,-195.53"
       style="fill:#000000;fill-opacity:1;fill-rule:nonzero;stroke:none"
       transform="matrix(0.13333333,0,0,-0.13333333,0,684.58667)" />
    <path
       id="path55"
       d="m 3796.74,2330.74 c 0,-84.47 -68.5,-152.98 -153,-152.98 -84.48,0 -152.97,68.51 -152.97,152.98 0,84.49 68.49,152.99 152.97,152.99 84.5,0 153,-68.5 153,-152.99"
       style="fill:#def4fd;fill-opacity:1;fill-rule:nonzero;stroke:none"
       transform="matrix(0.13333333,0,0,-0.13333333,0,684.58667)" />
    <path
       id="path56"
       d="m 3725.62,2373.08 c -2.26,0 -4.53,0.75 -6.39,2.29 -5.33,4.4 -10.91,8.29 -16.56,11.53 -4.63,2.68 -6.35,8.54 -3.85,13.31 l 12.61,24.21 c 1.3,2.49 3.58,4.3 6.28,5.03 0.86,0.25 1.72,0.35 2.59,0.35 1.9,0 3.78,-0.54 5.4,-1.56 9.44,-6.04 17.76,-13.52 24.68,-22.23 3.19,-4.01 2.84,-9.76 -0.82,-13.38 l -16.93,-16.68 c -1.94,-1.89 -4.47,-2.87 -7.01,-2.87"
       style="fill:#ffffff;fill-opacity:1;fill-rule:nonzero;stroke:none"
       transform="matrix(0.13333333,0,0,-0.13333333,0,684.58667)" />
    <path
       id="path57"
       d="m 3672.22,2399.14 c -1.78,0 -3.58,0.35 -5.3,1.07 -13.07,5.39 -26.72,9.11 -40.57,10.99 -4.42,0.63 -8.28,3.33 -10.37,7.28 -2.1,3.92 -2.18,8.64 -0.21,12.63 l 15.16,30.95 c 2.34,4.76 7.16,7.75 12.48,7.75 0.03,0 0.06,0 0.11,0 18.71,0 36.65,-3.57 53.63,-10.68 3.72,-1.56 6.57,-4.61 7.84,-8.43 1.27,-3.8 0.83,-7.98 -1.2,-11.43 l -19.59,-33.28 c -2.56,-4.36 -7.17,-6.85 -11.98,-6.85"
       style="fill:#ffffff;fill-opacity:1;fill-rule:nonzero;stroke:none"
       transform="matrix(0.13333333,0,0,-0.13333333,0,684.58667)" />
    <path
       id="path58"
       d="m 3792.4,2295.16 c -96.35,-50.65 -141.06,-11.02 -217.22,34.15 -35.08,20.82 -62.7,23 -83.5,17.91 -0.58,-5.4 -0.91,-10.89 -0.91,-16.48 0,-84.47 68.49,-152.98 152.97,-152.98 72.23,0 132.58,50.09 148.66,117.4"
       style="fill:#c2ebfb;fill-opacity:1;fill-rule:nonzero;stroke:none"
       transform="matrix(0.13333333,0,0,-0.13333333,0,684.58667)" />
    <path
       id="path59"
       d="m 1507.82,2704.81 c -57.3,-86.32 -97.83,-180.56 -121.03,-242.24 27.32,-20.14 61.9,-30.53 98.23,-26.07 75.46,9.25 129.12,77.93 119.87,153.38 -6.86,55.9 -46.39,99.67 -97.07,114.93"
       style="fill:#000000;fill-opacity:1;fill-rule:nonzero;stroke:none"
       transform="matrix(0.13333333,0,0,-0.13333333,0,684.58667)" />
    <path
       id="path60"
       d="m 1774.48,2291.57 c 0,-39.41 -31.95,-71.37 -71.37,-71.37 -39.42,0 -71.38,31.96 -71.38,71.37 0,39.42 31.96,71.38 71.38,71.38 39.42,0 71.37,-31.96 71.37,-71.38"
       style="fill:#000000;fill-opacity:1;fill-rule:nonzero;stroke:none"
       transform="matrix(0.13333333,0,0,-0.13333333,0,684.58667)" />
    <path
       id="path61"
       d="m 1908.07,2766.59 c 0,-43.64 -35.37,-79.02 -79.02,-79.02 -43.64,0 -79.01,35.38 -79.01,79.02 0,43.65 35.37,79.02 79.01,79.02 43.65,0 79.02,-35.37 79.02,-79.02"
       style="fill:#000000;fill-opacity:1;fill-rule:nonzero;stroke:none"
       transform="matrix(0.13333333,0,0,-0.13333333,0,684.58667)" />
    <path
       id="path62"
       d="m 1953.96,3016.4 c 0,-21.12 -17.12,-38.24 -38.24,-38.24 -21.11,0 -38.23,17.12 -38.23,38.24 0,21.12 17.12,38.23 38.23,38.23 21.12,0 38.24,-17.11 38.24,-38.23"
       style="fill:#000000;fill-opacity:1;fill-rule:nonzero;stroke:none"
       transform="matrix(0.13333333,0,0,-0.13333333,0,684.58667)" />
    <path
       id="path63"
       d="m 2285.33,2799.73 c 0,-39.42 -31.95,-71.37 -71.37,-71.37 -39.42,0 -71.37,31.95 -71.37,71.37 0,39.42 31.95,71.38 71.37,71.38 39.42,0 71.37,-31.96 71.37,-71.38"
       style="fill:#000000;fill-opacity:1;fill-rule:nonzero;stroke:none"
       transform="matrix(0.13333333,0,0,-0.13333333,0,684.58667)" />
    <path
       id="path64"
       d="m 3980.5,3966.71 c -188.96,25.36 -423.27,165.72 -562.42,259.54 -1.15,-1.89 -2.44,-3.74 -3.83,-5.52 -13.4,-17.24 -34.67,-25.39 -55.34,-22.62 -6.53,0.86 -13.01,2.84 -19.17,5.96 -60.41,30.67 -162.92,122.51 -118.4,250.62 1.26,4.2 3.57,10.44 6.41,17.04 0.12,0.32 2.16,4.85 2.3,5.13 10.43,23.07 26.21,46.95 47.75,71.88 134.91,156.19 447.67,352.78 587.09,369.02 10.65,1.24 21.72,1.1 32.88,-0.4 140.38,-18.84 306.16,-262.12 372.93,-477.52 57.3,-184.84 37.94,-332.61 -54.51,-416.11 -56.69,-51.2 -135.99,-70.4 -235.69,-57.02"
       style="fill:#000000;fill-opacity:1;fill-rule:nonzero;stroke:none"
       transform="matrix(0.13333333,0,0,-0.13333333,0,684.58667)" />
    <path
       id="path65"
       d="m 3278.01,4434.99 c 1.38,4.46 3.16,9.16 5.3,14.07 0.1,0.21 0.14,0.4 0.23,0.6 0.12,0.27 0.24,0.42 0.36,0.68 7.58,16.99 19.77,36.58 39.3,59.18 132.47,153.36 432.16,335.08 548.64,348.64 165.16,19.23 518.54,-596.25 304.14,-789.9 -214.39,-193.65 -840.8,290.93 -840.8,290.93 l -5.21,0.78 c 0,0 -13.24,-44.95 36.93,-102.39 0,0 -127.97,64.96 -88.89,177.41"
       style="fill:#e3eef3;fill-opacity:1;fill-rule:nonzero;stroke:none"
       transform="matrix(0.13333333,0,0,-0.13333333,0,684.58667)" />
    <path
       id="path66"
       d="m 3896.6,3985.23 c -127.76,0 -231.69,113.35 -231.69,252.69 0,139.34 103.93,252.69 231.69,252.69 127.77,0 231.7,-113.35 231.7,-252.69 0,-139.34 -103.93,-252.69 -231.7,-252.69"
       style="fill:#000000;fill-opacity:1;fill-rule:nonzero;stroke:none"
       transform="matrix(0.13333333,0,0,-0.13333333,0,684.58667)" />
    <path
       id="path67"
       d="m 4083.3,4241.95 c 0,-116.93 -83.59,-211.73 -186.69,-211.73 -103.11,0 -186.7,94.8 -186.7,211.73 0,116.94 83.59,211.74 186.7,211.74 103.1,0 186.69,-94.8 186.69,-211.74"
       style="fill:#dbf4fd;fill-opacity:1;fill-rule:nonzero;stroke:none"
       transform="matrix(0.13333333,0,0,-0.13333333,0,684.58667)" />
    <path
       id="path68"
       d="m 3883.5,4405.44 c 81.96,0 153.95,-46.78 195.14,-117.02 -18.69,94.56 -93.02,165.27 -182.03,165.27 -70.06,0 -131.01,-43.82 -162.95,-108.55 40.44,37.52 92.71,60.3 149.84,60.3"
       style="fill:#ffffff;fill-opacity:1;fill-rule:nonzero;stroke:none"
       transform="matrix(0.13333333,0,0,-0.13333333,0,684.58667)" />
    <path
       id="path69"
       d="m 4016.61,4258.65 c 0,-25.15 -20.39,-45.53 -45.54,-45.53 -25.14,0 -45.53,20.38 -45.53,45.53 0,25.15 20.39,45.54 45.53,45.54 25.15,0 45.54,-20.39 45.54,-45.54"
       style="fill:#000000;fill-opacity:1;fill-rule:nonzero;stroke:none"
       transform="matrix(0.13333333,0,0,-0.13333333,0,684.58667)" />
    <path
       id="path70"
       d="m 4024.34,4574.55 c 0,0 -65.7,69.31 -256.4,23.61 0,0 -61.24,164.08 91.72,177.93 169.54,15.36 210.61,-107.92 164.68,-201.54"
       style="fill:#000000;fill-opacity:1;fill-rule:nonzero;stroke:none"
       transform="matrix(0.13333333,0,0,-0.13333333,0,684.58667)" />
    <path
       id="path71"
       d="m 3654.69,2831.37 c -319.95,0 -523.83,122.64 -589.65,169.18 -57.99,-8.37 -127.59,-12.44 -211.65,-12.44 -83.61,0 -182.25,4.12 -301.52,12.61 -356.16,25.35 -629.85,243.15 -697.3,554.87 -84.69,391.71 165.77,567.07 258.38,617.36 50.82,310.65 223.06,793.94 802.03,793.94 15.32,0 30.93,-0.35 46.64,-1.08 74.67,81.58 181.17,168.59 295.72,168.59 7.79,0 15.59,-0.4 23.35,-1.23 72.77,-7.79 115.4,-34.67 126.71,-79.89 2.02,-8.06 2.81,-15.92 2.6,-23.6 44.16,-13.86 63.64,-49.95 66.54,-81.83 1.9,-20.93 -1.67,-41.66 -10.7,-62.06 195.04,-94.65 347.76,-266.62 454.69,-512.3 54.47,-125.19 97.12,-198.72 142.59,-245.89 32.31,-33.53 65.98,-53.99 112.56,-82.3 23.26,-14.12 49.6,-30.11 79.16,-49.95 205.08,-137.4 297.8,-298.61 283.5,-492.8 -14.06,-190.81 -122.75,-638.04 -826.49,-669.89 -19.45,-0.88 -38.47,-1.29 -57.1,-1.29 -0.03,0 -0.03,0 -0.06,0"
       style="fill:#000000;fill-opacity:1;fill-rule:nonzero;stroke:none"
       transform="matrix(0.13333333,0,0,-0.13333333,0,684.58667)" />
    <path
       id="path72"
       d="m 4221.45,3945.52 c -87.79,58.84 -145.72,82.53 -201.53,140.43 -47.35,49.12 -93.17,122.87 -154.41,263.6 -100.08,229.97 -256.09,423.36 -493.42,511.02 24.35,21.93 47.48,51.19 44.7,81.86 -5.7,62.69 -125.39,17.09 -125.39,17.09 0,0 142.49,96.89 -17.1,113.99 -113.4,12.15 -229.35,-102.07 -287.16,-169.34 -342.72,25.58 -726.19,-120.66 -819.63,-771.2 0,0 -347.34,-134.39 -254.28,-564.69 21.68,-100.24 74.43,-215.43 137.96,-298.17 78.35,-102.04 217.63,-212.02 294.29,-250.13 241.15,-119.88 632.95,-94.87 632.95,-94.87 l 86.61,75.44 -61.49,50.04 c -0.15,0.03 14.7,4.86 14.55,4.9 22,2.24 43.17,4.88 62.6,8.34 0,0 225.14,-189.46 628.41,-171.22 703.61,31.82 761.02,500.33 769.41,614.35 16.11,219.02 -131.2,354.19 -257.07,438.56"
       style="fill:#fafdff;fill-opacity:1;fill-rule:nonzero;stroke:none"
       transform="matrix(0.13333333,0,0,-0.13333333,0,684.58667)" />
    <path
       id="path73"
       d="m 3809.57,2987.85 c -751.05,-37.98 -810.46,387.28 -810.46,387.28 -83.09,50.79 -104.14,28.91 -104.14,28.91 -24.1,-153.78 75.59,-278.22 146.92,-345.75 13.28,1.69 26.58,3.36 38.81,5.54 0,0 225.14,-189.46 628.41,-171.22 283.02,12.8 461.35,96.3 574.13,198.91 -97.38,-44.18 -245.83,-92.14 -473.67,-103.67"
       style="fill:#e3eef3;fill-opacity:1;fill-rule:nonzero;stroke:none"
       transform="matrix(0.13333333,0,0,-0.13333333,0,684.58667)" />
    <path
       id="path74"
       d="m 3372.09,4860.57 c 8.32,7.5 16.43,15.91 23.48,24.89 -19.07,4.42 -38.28,9.93 -57.55,17 -19.75,7.25 -144.53,9.79 -153.55,-10.61 363.27,-108.66 490.62,-318.08 597.54,-563.77 54.48,-125.17 97.12,-198.7 142.59,-245.9 32.33,-33.53 66.01,-54 112.6,-82.3 23.25,-14.12 49.59,-30.11 79.15,-49.93 61.91,-41.49 155.59,-91.99 249.39,-149.26 -39.47,60.45 -90.4,108.71 -144.29,144.83 -87.79,58.84 -145.72,82.53 -201.53,140.43 -47.35,49.12 -93.17,122.87 -154.41,263.6 -100.08,229.97 -256.09,423.36 -493.42,511.02"
       style="fill:#ffffff;fill-opacity:1;fill-rule:nonzero;stroke:none"
       transform="matrix(0.13333333,0,0,-0.13333333,0,684.58667)" />
    <path
       id="path75"
       d="m 3332.58,4200.14 c 0,-200.28 -163.21,-362.65 -364.54,-362.65 -201.34,0 -364.55,162.37 -364.55,362.65 0,200.29 163.21,362.66 364.55,362.66 201.33,0 364.54,-162.37 364.54,-362.66"
       style="fill:#000000;fill-opacity:1;fill-rule:nonzero;stroke:none"
       transform="matrix(0.13333333,0,0,-0.13333333,0,684.58667)" />
    <path
       id="path76"
       d="m 2926.25,3985.23 c -127.77,0 -231.7,113.35 -231.7,252.69 0,139.34 103.93,252.69 231.7,252.69 127.76,0 231.69,-113.35 231.69,-252.69 0,-139.34 -103.93,-252.69 -231.69,-252.69"
       style="fill:#000000;fill-opacity:1;fill-rule:nonzero;stroke:none"
       transform="matrix(0.13333333,0,0,-0.13333333,0,684.58667)" />
    <path
       id="path77"
       d="m 3112.94,4241.95 c 0,-116.93 -83.59,-211.73 -186.69,-211.73 -103.11,0 -186.7,94.8 -186.7,211.73 0,116.94 83.59,211.74 186.7,211.74 103.1,0 186.69,-94.8 186.69,-211.74"
       style="fill:#dbf4fd;fill-opacity:1;fill-rule:nonzero;stroke:none"
       transform="matrix(0.13333333,0,0,-0.13333333,0,684.58667)" />
    <path
       id="path78"
       d="m 2903.31,4402.16 c 92.11,0 171.59,-59.05 208.91,-144.14 -7.26,109.41 -87.65,195.67 -185.97,195.67 -66.65,0 -124.98,-39.73 -158.01,-99.33 38.08,29.94 84.65,47.8 135.07,47.8"
       style="fill:#ffffff;fill-opacity:1;fill-rule:nonzero;stroke:none"
       transform="matrix(0.13333333,0,0,-0.13333333,0,684.58667)" />
    <path
       id="path79"
       d="m 2935.35,4216.91 c 0,-25.15 -20.39,-45.53 -45.53,-45.53 -25.15,0 -45.54,20.38 -45.54,45.53 0,25.15 20.39,45.53 45.54,45.53 25.14,0 45.53,-20.38 45.53,-45.53"
       style="fill:#000000;fill-opacity:1;fill-rule:nonzero;stroke:none"
       transform="matrix(0.13333333,0,0,-0.13333333,0,684.58667)" />
    <path
       id="path80"
       d="m 2796.23,4611.32 c 0,0 65.71,69.32 256.41,23.62 0,0 61.24,164.07 -91.72,177.92 -169.54,15.36 -210.6,-107.92 -164.69,-201.54"
       style="fill:#000000;fill-opacity:1;fill-rule:nonzero;stroke:none"
       transform="matrix(0.13333333,0,0,-0.13333333,0,684.58667)" />
    <path
       id="path81"
       d="m 3858.7,2867.07 -6.79,28.71 c 17.06,3.94 416.42,105.24 271.01,827.66 l 29.44,5.69 c 78.68,-390.92 -4.16,-604.04 -87.49,-714.02 -91.6,-120.82 -201.54,-146.97 -206.17,-148.04"
       style="fill:#000000;fill-opacity:1;fill-rule:nonzero;stroke:none"
       transform="matrix(0.13333333,0,0,-0.13333333,0,684.58667)" />
    <path
       id="path82"
       d="m 4448.78,3804.84 c 0,-107.93 -155.31,-195.44 -346.89,-195.44 -191.58,0 -346.88,87.51 -346.88,195.44 0,107.94 155.3,195.44 346.88,195.44 191.58,0 346.89,-87.5 346.89,-195.44"
       style="fill:#000000;fill-opacity:1;fill-rule:nonzero;stroke:none"
       transform="matrix(0.13333333,0,0,-0.13333333,0,684.58667)" />
    <path
       id="path83"
       d="m 4326.03,3868.46 c 0,-37.73 -91.74,-68.3 -204.9,-68.3 -113.17,0 -204.91,30.57 -204.91,68.3 0,37.72 91.74,68.3 204.91,68.3 113.16,0 204.9,-30.58 204.9,-68.3"
       style="fill:#ffffff;fill-opacity:1;fill-rule:nonzero;stroke:none"
       transform="matrix(0.13333333,0,0,-0.13333333,0,684.58667)" />
    <path
       id="path84"
       d="m 3465.84,4885.78 c -186.8,68.78 -281.37,6.07 -281.37,6.07 89.52,4.4 187.62,-31.28 187.62,-31.28 l 93.75,25.21"
       style="fill:#000000;fill-opacity:1;fill-rule:nonzero;stroke:none"
       transform="matrix(0.13333333,0,0,-0.13333333,0,684.58667)" />
    <path
       id="path85"
       d="m 3065.04,3000.55 c -9.02,6.3 -268.79,169.83 -188.52,413.77 l 35.88,-6.71 c -44.86,-189.78 166.25,-342.34 168.3,-343.78 l -15.66,-63.28"
       style="fill:#000000;fill-opacity:1;fill-rule:nonzero;stroke:none"
       transform="matrix(0.13333333,0,0,-0.13333333,0,684.58667)" />
    <path
       id="path86"
       d="m 2792.58,3360.73 c 0,0 62.06,53.54 206.53,14.4 0,0 -26.93,54 -112.87,54.02 -40.41,0.01 -79.48,-21.22 -93.66,-68.42"
       style="fill:#000000;fill-opacity:1;fill-rule:nonzero;stroke:none"
       transform="matrix(0.13333333,0,0,-0.13333333,0,684.58667)" />
    <path
       id="path87"
       d="m 1649.86,3900.98 c -123.59,72.68 -179.25,255.52 -152.75,501.62 23.23,215.8 112.27,469.05 252.82,515.18 164.21,53.88 587.5,24.4 794.61,-55.34 18.99,-7.3 36.14,-15.44 51,-24.17 44.16,-25.97 71,-58.64 79.8,-97.1 10.53,-46.21 -10.38,-80.55 -14.67,-86.96 -5.08,-7.57 -11.81,-13.89 -19.69,-18.48 l -39.64,-23.04 c -83.57,-127.89 -552.77,-818.76 -885.25,-738.39 -23.52,5.69 -45.79,14.66 -66.21,26.66 -0.01,0.01 -0.02,0.02 -0.02,0.02"
       style="fill:#000000;fill-opacity:1;fill-rule:nonzero;stroke:none"
       transform="matrix(0.13333333,0,0,-0.13333333,0,684.58667)" />
    <path
       id="path88"
       d="m 2600.29,4758.38 c -3.08,3.55 -6.72,7.12 -10.84,10.71 -0.18,0.15 -0.28,0.31 -0.46,0.46 -0.23,0.19 -0.42,0.27 -0.65,0.46 -14.45,12.34 -35.13,24.81 -65.35,36.45 -205.03,78.93 -614.19,100.31 -754.34,54.32 -198.7,-65.21 -352.22,-852.3 -38.45,-928.16 313.78,-75.85 828.6,724.73 828.6,724.73 l 5.81,3.38 c 0,0 30.29,-36.08 -9.13,-116.1 0,0 127.54,126.51 44.81,213.75"
       style="fill:#fafdff;fill-opacity:1;fill-rule:nonzero;stroke:none"
       transform="matrix(0.13333333,0,0,-0.13333333,0,684.58667)" />
    <path
       id="path89"
       d="m 1976.39,4542.02 c 0,-69.89 -56.65,-126.55 -126.55,-126.55 -69.89,0 -126.55,56.66 -126.55,126.55 0,69.89 56.66,126.55 126.55,126.55 69.9,0 126.55,-56.66 126.55,-126.55"
       style="fill:#000000;fill-opacity:1;fill-rule:nonzero;stroke:none"
       transform="matrix(0.13333333,0,0,-0.13333333,0,684.58667)" />
    <path
       id="path90"
       d="m 2195.5,4351.25 c 0,-47.98 -38.9,-86.89 -86.89,-86.89 -47.98,0 -86.88,38.91 -86.88,86.89 0,47.99 38.9,86.89 86.88,86.89 47.99,0 86.89,-38.9 86.89,-86.89"
       style="fill:#000000;fill-opacity:1;fill-rule:nonzero;stroke:none"
       transform="matrix(0.13333333,0,0,-0.13333333,0,684.58667)" />
    <path
       id="path91"
       d="m 2626.16,3818.6 c 0,-68.85 -55.82,-124.66 -124.67,-124.66 -68.85,0 -124.66,55.81 -124.66,124.66 0,68.85 55.81,124.66 124.66,124.66 68.85,0 124.67,-55.81 124.67,-124.66"
       style="fill:#000000;fill-opacity:1;fill-rule:nonzero;stroke:none"
       transform="matrix(0.13333333,0,0,-0.13333333,0,684.58667)" />
    <path
       id="path92"
       d="m 3245.43,3635.52 c 0,-44.79 -36.3,-81.09 -81.09,-81.09 -44.78,0 -81.09,36.3 -81.09,81.09 0,44.78 36.31,81.08 81.09,81.08 44.79,0 81.09,-36.3 81.09,-81.08"
       style="fill:#000000;fill-opacity:1;fill-rule:nonzero;stroke:none"
       transform="matrix(0.13333333,0,0,-0.13333333,0,684.58667)" />
    <path
       id="path93"
       d="m 3615.91,4517.34 c 0,-54.18 -43.92,-98.09 -98.09,-98.09 -54.18,0 -98.09,43.91 -98.09,98.09 0,54.17 43.91,98.08 98.09,98.08 54.17,0 98.09,-43.91 98.09,-98.08"
       style="fill:#000000;fill-opacity:1;fill-rule:nonzero;stroke:none"
       transform="matrix(0.13333333,0,0,-0.13333333,0,684.58667)" />
    <path
       id="path94"
       d="m 3717.65,4243.58 c 0,-36.51 -29.6,-66.11 -66.11,-66.11 -36.52,0 -66.12,29.6 -66.12,66.11 0,36.52 29.6,66.12 66.12,66.12 36.51,0 66.11,-29.6 66.11,-66.12"
       style="fill:#000000;fill-opacity:1;fill-rule:nonzero;stroke:none"
       transform="matrix(0.13333333,0,0,-0.13333333,0,684.58667)" />
    <path
       id="path95"
       d="m 4236.1,4468.37 c 0,-38.34 -31.08,-69.43 -69.42,-69.43 -38.35,0 -69.43,31.09 -69.43,69.43 0,38.34 31.08,69.43 69.43,69.43 38.34,0 69.42,-31.09 69.42,-69.43"
       style="fill:#000000;fill-opacity:1;fill-rule:nonzero;stroke:none"
       transform="matrix(0.13333333,0,0,-0.13333333,0,684.58667)" />
    <path
       id="path96"
       d="m 3161.8,2951.7 c 0,0 162.27,-98.19 201.41,-348.27 l 35.45,47.91 31.94,227.07 c 0,0 -239.35,93.9 -268.8,73.29"
       style="fill:#000000;fill-opacity:1;fill-rule:nonzero;stroke:none"
       transform="matrix(0.13333333,0,0,-0.13333333,0,684.58667)" />
  </g>
</svg>
